# xmcd
#
# Track frame offsets:
#	150
#	14824
#	29940
#	45682
#	61469
#	87345
#	106685
#	119602
#	137374
#	155516
#	180721
#	201024
#	215968
#	229177
#	244547
#	266263
#	284469
#	303494
#
# Disc length: 4212 seconds
#
# Revision: 1
# Processed by: cddbd v1.5.1PL2 Copyright (c) Steve Scherf et al.
# Submitted via: audiograbber 1.83.01
#
DISCID=0c107212
DTITLE=Various Artist - Dualtone - New Music Sampler
DYEAR=2005
DGENRE=Country
TTITLE0=Carey Ott - Am I Just One
TTITLE1=Carey Ott - Daylight
TTITLE2=Carey Ott - I Wouldn't Do That To You
TTITLE3=Robinella - Break It Down Baby
TTITLE4=Robinella - Press On
TTITLE5=Bobby Bare - Are You Sincere
TTITLE6=Bobby Bare - Am I That Easy To Forget
TTITLE7=BR549 - Poison
TTITLE8=BR459 - Lower Broad St Blues
TTITLE9=The Greencards - What You Are
TTITLE10=The Greencards - Time
TTITLE11=Warren Zanes - JR's Bag Of Tricks
TTITLE12=Warren Zanes - People That Im Wrong For
TTITLE13=Jeff Black - Hollow Of Your Hand
TTITLE14=Jeff Black - Free At Last
TTITLE15=Darden Smith - Field Of Crows
TTITLE16=Darden Smith - Mary
TTITLE17=June Carter Cash - Keep On The Sunny Side
EXTD=
EXTT0=
EXTT1=
EXTT2=
EXTT3=
EXTT4=
EXTT5=
EXTT6=
EXTT7=
EXTT8=
EXTT9=
EXTT10=
EXTT11=
EXTT12=
EXTT13=
EXTT14=
EXTT15=
EXTT16=
EXTT17=
PLAYORDER=
